<svg xmlns="http://www.w3.org/2000/svg" version="1.1" xmlns:xlink="http://www.w3.org/1999/xlink" xmlns:svgjs="http://svgjs.dev/svgjs" width="1000" height="247" viewBox="0 0 1000 247"><g transform="matrix(1,0,0,1,-0.6060606060606233,0.5915796277005114)"><svg viewBox="0 0 396 98" data-background-color="#111111" preserveAspectRatio="xMidYMid meet" height="247" width="1000" xmlns="http://www.w3.org/2000/svg" xmlns:xlink="http://www.w3.org/1999/xlink"><g id="tight-bounds" transform="matrix(1,0,0,1,0.2400000000000091,-0.23471580370303968)"><svg viewBox="0 0 395.52 98.46943160740608" height="98.46943160740608" width="395.52"><g><svg viewBox="0 0 552.6363611873695 137.58542771972452" height="98.46943160740608" width="395.52"><g transform="matrix(1,0,0,1,157.1163611873695,2.422512354930035)"><svg viewBox="0 0 395.52000000000004 132.74040300986445" height="132.74040300986445" width="395.52000000000004"><g><svg viewBox="0 0 395.52000000000004 132.74040300986445" height="132.74040300986445" width="395.52000000000004"><g><svg viewBox="0 0 395.52000000000004 82.731550295858" height="82.731550295858" width="395.52000000000004"><g transform="matrix(1,0,0,1,0,0)"><svg width="395.52000000000004" viewBox="0.7 -34.3 168.99 35.349999999999994" height="82.731550295858" data-palette-color="#31c48d"><path d="M28.45-8.7Q27.7-6.45 25.48-4.17 23.25-1.9 19.88-0.43 16.5 1.05 12.5 1.05L12.5 1.05Q6.4 1.05 3.55-1.93 0.7-4.9 0.7-9.55L0.7-9.55Q0.7-16.15 3.65-21.53 6.6-26.9 11.6-29.98 16.6-33.05 22.4-33.05L22.4-33.05Q24.7-33.05 26.6-32 28.5-30.95 29.6-28.98 30.7-27 30.7-24.35L30.7-24.35Q30.7-22.85 29.58-21.8 28.45-20.75 26.55-20.75L26.55-20.75Q25.05-20.75 24.53-21.55 24-22.35 24-23.6L24-23.6 24.05-25.2Q24.05-26.1 23.05-26.95 22.05-27.8 21.2-27.8L21.2-27.8Q18.4-27.8 15.05-25.28 11.7-22.75 9.4-18.48 7.1-14.2 7.1-9.2L7.1-9.2Q7.1-6.9 8.9-5.45 10.7-4 13.45-4L13.45-4Q14.35-4 15.8-4.6 17.25-5.2 18.48-6.1 19.7-7 20.1-7.85L20.1-7.85Q20.7-9.1 21.8-10.65 22.9-12.2 24-12.2L24-12.2Q26.55-12.2 27.48-11.1 28.4-10 28.45-8.7L28.45-8.7ZM59.65-33.8Q61.45-32.85 61.45-31.4L61.45-31.4Q61.45-30.5 60.47-29.73 59.5-28.95 58.3-28.65L58.3-28.65 56.1-28.5Q54.6-28.4 52.05-28.23 49.5-28.05 46.05-27.75L46.05-27.75 43.8-18.8Q46.95-19.3 49.02-19.6 51.1-19.9 53.65-20.1L53.65-20.1Q55.6-19.25 55.6-17.8L55.6-17.8Q55.6-16.9 54.7-16.05 53.8-15.2 52.65-14.85L52.65-14.85 49.8-14.55Q45.25-14.05 42.5-13.55L42.5-13.55Q41.9-10.8 40.8-6.6L40.8-6.6 40.4-5.05Q47.05-6.3 53.25-6.8L53.25-6.8Q55.2-5.95 55.2-4.5L55.2-4.5Q55.2-3.6 54.3-2.75 53.4-1.9 52.25-1.55L52.25-1.55Q42.75-0.45 38.85 0.3L38.85 0.3Q38.4 0.6 36.9 0.6L36.9 0.6Q35.5 0.6 34.42-0.7 33.35-2 33.35-3.4L33.35-3.4Q33.35-3.95 33.5-4.45L33.5-4.45 39.2-27 39.05-27Q39-27.55 38.35-28.35L38.35-28.35Q38.3-28.45 37.95-28.98 37.6-29.5 37.6-30L37.6-30Q37.7-31.45 39.5-32.3L39.5-32.3Q43.25-32.8 50-33.27 56.75-33.75 59.65-33.8L59.65-33.8ZM71.45-34.3Q72.9-34.3 73.65-33.9 74.4-33.5 74.4-32.85L74.4-32.85Q75.35-33 76.07-33.05 76.8-33.1 77.7-33.1L77.7-33.1Q81.3-33.1 83.77-31.35 86.25-29.6 87.47-26.75 88.7-23.9 88.7-20.6L88.7-20.6Q88.7-19.75 88.65-19.35L88.65-19.35Q88.2-13.35 85.65-8.78 83.1-4.2 78.92-1.7 74.75 0.8 69.55 0.8L69.55 0.8Q68.1 0.8 66 0.45L66 0.45Q65.2 0.3 64.12-0.63 63.05-1.55 62.3-2.75 61.55-3.95 61.55-4.9L61.55-4.9Q61.55-5.45 61.7-5.95L61.7-5.95 66.95-26.2Q64.1-25.35 62.15-24L62.15-24Q61.55-24.6 61.25-25.5 60.95-26.4 60.95-27.35L60.95-27.35Q60.95-28.45 61.85-29.3L61.85-29.3Q64.2-30.8 68.35-31.85L68.35-31.85Q69.3-34.3 71.45-34.3L71.45-34.3ZM67.95-4.75Q69.15-4.45 70.55-4.45L70.55-4.45Q74.05-4.45 76.55-6.38 79.05-8.3 80.47-11.25 81.9-14.2 82.35-17.35L82.35-17.35Q82.55-18.6 82.55-20.15L82.55-20.15Q82.55-23.65 81-25.68 79.45-27.7 76.2-27.7L76.2-27.7Q74.8-27.7 73.65-27.5L73.65-27.5Q72.75-23.6 69.85-12.25L69.85-12.25Q68.3-6.15 67.95-4.75L67.95-4.75ZM115.84-3.95Q116.44-3.85 117.24-2.85 118.04-1.85 118.04-1L118.04-1Q118.04-0.45 117.19-0.15L117.19-0.15Q116.89-0.05 116.22 0.23 115.54 0.5 114.99 0.6 114.44 0.7 113.74 0.7L113.74 0.7Q112.69 0.7 112.14 0.45L112.14 0.45Q110.74-0.15 108.49-2.35 106.24-4.55 104.14-7.38 102.04-10.2 101.04-12.65L101.04-12.65 100.74-12.65Q99.34-12.65 98.69-12.7L98.69-12.7Q97.19-7.15 96.19-3L96.19-3Q95.79-1.25 94.97-0.3 94.14 0.65 92.29 0.65L92.29 0.65Q90.74 0.65 90.02 0.13 89.29-0.4 89.29-1.65L89.29-1.65Q89.29-2.2 89.44-2.7L89.44-2.7 95.49-26.05Q92.89-25.3 91.54-24L91.54-24Q90.99-24.6 90.67-25.58 90.34-26.55 90.34-27.5L90.34-27.5Q90.34-28.2 90.77-28.63 91.19-29.05 91.94-29.4L91.94-29.4Q92.19-29.55 93.77-30.3 95.34-31.05 96.79-31.45L96.79-31.45Q97.24-32.45 98.17-33.1 99.09-33.75 100.54-33.75L100.54-33.75Q101.39-33.75 101.94-33.43 102.49-33.1 102.69-32.6L102.69-32.6Q104.54-33.2 107.14-33.2L107.14-33.2Q110.34-33.2 112.72-31.93 115.09-30.65 116.34-28.65 117.59-26.65 117.59-24.6L117.59-24.6Q117.59-20.05 114.67-17.32 111.74-14.6 107.14-13.45L107.14-13.45Q108.19-11.65 109.94-9.4 111.69-7.15 113.27-5.58 114.84-4 115.34-4L115.34-4 115.84-3.95ZM102.14-27.4Q100.69-21.6 99.74-17.35L99.74-17.35Q100.34-17.3 101.44-17.3L101.44-17.3Q103.84-17.3 106.24-18.03 108.64-18.75 110.27-20.2 111.89-21.65 111.89-23.8L111.89-23.8Q111.89-25.75 110.29-26.93 108.69-28.1 105.99-28.1L105.99-28.1Q104.49-28.1 102.14-27.4L102.14-27.4ZM125.24-25.9Q124.24-26.25 123.72-26.98 123.19-27.7 123.19-28.7L123.19-28.7Q123.19-30.15 125.14-31L125.14-31Q132.29-32.45 139.54-33.05L139.54-33.05Q141.49-32.2 141.49-30.75L141.49-30.75Q141.49-29.85 140.59-29 139.69-28.15 138.54-27.8L138.54-27.8 135.79-27.45Q134.94-23.7 131.89-11.3L131.89-11.3 130.49-5.7 134.34-6.1Q136.29-5.25 136.29-3.8L136.29-3.8Q136.29-2.9 135.39-2.05 134.49-1.2 133.34-0.85L133.34-0.85 131.34-0.6Q123.99 0.2 120.04 1.05L120.04 1.05Q119.04 0.7 118.52-0.03 117.99-0.75 117.99-1.75L117.99-1.75Q117.99-3.2 119.94-4.05L119.94-4.05Q122.44-4.55 123.74-4.75L123.74-4.75 129.24-26.6Q127.19-26.3 125.24-25.9L125.24-25.9ZM167.44-8.7Q166.69-6.45 164.46-4.17 162.24-1.9 158.86-0.43 155.49 1.05 151.49 1.05L151.49 1.05Q145.39 1.05 142.54-1.93 139.69-4.9 139.69-9.55L139.69-9.55Q139.69-16.15 142.64-21.53 145.59-26.9 150.59-29.98 155.59-33.05 161.39-33.05L161.39-33.05Q163.69-33.05 165.59-32 167.49-30.95 168.59-28.98 169.69-27 169.69-24.35L169.69-24.35Q169.69-22.85 168.56-21.8 167.44-20.75 165.54-20.75L165.54-20.75Q164.04-20.75 163.51-21.55 162.99-22.35 162.99-23.6L162.99-23.6 163.04-25.2Q163.04-26.1 162.04-26.95 161.04-27.8 160.19-27.8L160.19-27.8Q157.39-27.8 154.04-25.28 150.69-22.75 148.39-18.48 146.09-14.2 146.09-9.2L146.09-9.2Q146.09-6.9 147.89-5.45 149.69-4 152.44-4L152.44-4Q153.34-4 154.79-4.6 156.24-5.2 157.46-6.1 158.69-7 159.09-7.85L159.09-7.85Q159.69-9.1 160.79-10.65 161.89-12.2 162.99-12.2L162.99-12.2Q165.54-12.2 166.46-11.1 167.39-10 167.44-8.7L167.44-8.7Z" opacity="1" transform="matrix(1,0,0,1,0,0)" fill="#31c48d" class="undefined-text-0" data-fill-palette-color="primary" id="text-0"></path></svg></g></svg></g><g transform="matrix(1,0,0,1,0,102.26248376350297)"><svg viewBox="0 0 232.20979200000002 30.477919246361473" height="30.477919246361473" width="232.20979200000002"><g transform="matrix(1,0,0,1,0,0)"><svg width="232.20979200000002" viewBox="4 -37.5 377.87 49.6" height="30.477919246361473" data-palette-color="#adbfb8"><path d="M16.95 0L4 0 4-35 16.95-35Q22.03-35 25.95-32.93 29.88-30.85 32.11-26.94 34.35-23.03 34.35-17.5L34.35-17.5Q34.35-11.98 32.11-8.06 29.88-4.15 25.95-2.08 22.03 0 16.95 0L16.95 0ZM8.75-30.7L8.75-4.3 16.95-4.3Q20.95-4.3 23.66-5.96 26.38-7.63 27.76-10.6 29.15-13.58 29.15-17.5L29.15-17.5Q29.15-21.43 27.76-24.4 26.38-27.38 23.66-29.04 20.95-30.7 16.95-30.7L16.95-30.7 8.75-30.7ZM50.85 0.5L50.85 0.5Q46.52 0.5 43.57-1.28 40.62-3.05 39.11-5.99 37.6-8.93 37.6-12.45L37.6-12.45Q37.6-15.88 39.01-18.73 40.42-21.58 43.11-23.29 45.8-25 49.6-25L49.6-25Q52.65-25 55.04-23.79 57.42-22.58 58.79-20.26 60.15-17.95 60.15-14.65L60.15-14.65Q60.15-14.13 60.11-13.51 60.07-12.9 59.95-12.25L59.95-12.25 42.2-12.25Q42.52-8.85 43.82-6.95 45.12-5.05 47.1-4.28 49.07-3.5 51.4-3.5L51.4-3.5Q53.1-3.5 54.95-3.85 56.8-4.2 58.45-4.95L58.45-4.95 59.05-1.4Q57.62-0.78 55.57-0.14 53.52 0.5 50.85 0.5ZM42.6-15.35L42.6-15.35 55.5-15.35Q55.5-17.07 54.85-18.35 54.2-19.63 52.87-20.31 51.55-21 49.5-21L49.5-21Q46.5-21 44.89-19.51 43.27-18.03 42.6-15.35ZM76.3 0L71.25 0 61.9-24.5 66.9-24.5 73.75-4.95 80.55-24.5 85.6-24.5 76.3 0ZM100.39 0.5L100.39 0.5Q96.07 0.5 93.12-1.28 90.17-3.05 88.66-5.99 87.14-8.93 87.14-12.45L87.14-12.45Q87.14-15.88 88.56-18.73 89.97-21.58 92.66-23.29 95.34-25 99.14-25L99.14-25Q102.19-25 104.58-23.79 106.97-22.58 108.33-20.26 109.69-17.95 109.69-14.65L109.69-14.65Q109.69-14.13 109.66-13.51 109.62-12.9 109.49-12.25L109.49-12.25 91.74-12.25Q92.07-8.85 93.37-6.95 94.67-5.05 96.64-4.28 98.62-3.5 100.94-3.5L100.94-3.5Q102.64-3.5 104.49-3.85 106.34-4.2 107.99-4.95L107.99-4.95 108.59-1.4Q107.17-0.78 105.12-0.14 103.07 0.5 100.39 0.5ZM92.14-15.35L92.14-15.35 105.04-15.35Q105.04-17.07 104.39-18.35 103.74-19.63 102.42-20.31 101.09-21 99.04-21L99.04-21Q96.04-21 94.43-19.51 92.82-18.03 92.14-15.35ZM121.99 0.5L120.54 0.5Q118.17 0.5 116.78-0.36 115.39-1.23 114.79-2.58 114.19-3.93 114.19-5.4L114.19-5.4 114.19-37.5 118.69-37.5 118.69-8Q118.69-5.9 118.97-4.85 119.24-3.8 120.08-3.45 120.92-3.1 122.64-3.1L122.64-3.1 121.99 0.5ZM136.49 0.5L136.49 0.5Q132.64 0.5 129.93-1.21 127.21-2.93 125.78-5.81 124.34-8.7 124.34-12.25L124.34-12.25Q124.34-15.8 125.78-18.69 127.21-21.58 129.93-23.29 132.64-25 136.49-25L136.49-25Q140.31-25 143.04-23.29 145.76-21.58 147.2-18.69 148.64-15.8 148.64-12.25L148.64-12.25Q148.64-8.7 147.2-5.81 145.76-2.93 143.04-1.21 140.31 0.5 136.49 0.5ZM136.49-3.5L136.49-3.5Q140.14-3.5 142.09-5.81 144.04-8.13 144.04-12.25L144.04-12.25Q144.04-16.38 142.09-18.69 140.14-21 136.49-21L136.49-21Q132.86-21 130.9-18.69 128.94-16.38 128.94-12.25L128.94-12.25Q128.94-8.13 130.9-5.81 132.86-3.5 136.49-3.5ZM157.79 12.1L153.29 12.1 153.29-24.5 156.79-24.5 157.59-18.9 156.34-19.8Q157.89-22.2 160.16-23.6 162.44-25 165.74-25L165.74-25Q169.09-25 171.49-23.3 173.89-21.6 175.16-18.71 176.44-15.83 176.44-12.25L176.44-12.25Q176.44-8.68 175.24-5.79 174.04-2.9 171.66-1.2 169.29 0.5 165.74 0.5L165.74 0.5Q162.81 0.5 160.45-0.71 158.09-1.93 157.04-4.35L157.04-4.35 157.79-5.25 157.79 12.1ZM164.89-3.5L164.89-3.5Q168.16-3.5 170-5.81 171.84-8.13 171.84-12.25L171.84-12.25Q171.84-16.38 170-18.69 168.16-21 164.89-21L164.89-21Q162.86-21 161.2-20.04 159.54-19.07 158.54-17.14 157.54-15.2 157.54-12.25L157.54-12.25Q157.54-9.18 158.54-7.25 159.54-5.33 161.2-4.41 162.86-3.5 164.89-3.5ZM185.63 12.1L181.13 12.1 181.13-24.5 184.63-24.5 185.43-18.9 184.18-19.8Q185.73-22.2 188.01-23.6 190.28-25 193.58-25L193.58-25Q196.93-25 199.33-23.3 201.73-21.6 203.01-18.71 204.28-15.83 204.28-12.25L204.28-12.25Q204.28-8.68 203.08-5.79 201.88-2.9 199.51-1.2 197.13 0.5 193.58 0.5L193.58 0.5Q190.66 0.5 188.3-0.71 185.93-1.93 184.88-4.35L184.88-4.35 185.63-5.25 185.63 12.1ZM192.73-3.5L192.73-3.5Q196.01-3.5 197.85-5.81 199.68-8.13 199.68-12.25L199.68-12.25Q199.68-16.38 197.85-18.69 196.01-21 192.73-21L192.73-21Q190.71-21 189.05-20.04 187.38-19.07 186.38-17.14 185.38-15.2 185.38-12.25L185.38-12.25Q185.38-9.18 186.38-7.25 187.38-5.33 189.05-4.41 190.71-3.5 192.73-3.5ZM220.73 0.5L220.73 0.5Q216.41 0.5 213.46-1.28 210.5-3.05 208.99-5.99 207.48-8.93 207.48-12.45L207.48-12.45Q207.48-15.88 208.89-18.73 210.31-21.58 212.99-23.29 215.68-25 219.48-25L219.48-25Q222.53-25 224.92-23.79 227.31-22.58 228.67-20.26 230.03-17.95 230.03-14.65L230.03-14.65Q230.03-14.13 229.99-13.51 229.96-12.9 229.83-12.25L229.83-12.25 212.08-12.25Q212.41-8.85 213.71-6.95 215-5.05 216.98-4.28 218.96-3.5 221.28-3.5L221.28-3.5Q222.98-3.5 224.83-3.85 226.68-4.2 228.33-4.95L228.33-4.95 228.93-1.4Q227.5-0.78 225.46-0.14 223.41 0.5 220.73 0.5ZM212.48-15.35L212.48-15.35 225.38-15.35Q225.38-17.07 224.73-18.35 224.08-19.63 222.75-20.31 221.43-21 219.38-21L219.38-21Q216.38-21 214.77-19.51 213.16-18.03 212.48-15.35ZM243.38 0.5L243.38 0.5Q240.5 0.5 238.48-0.66 236.45-1.83 235.39-4.2 234.33-6.58 234.33-10.25L234.33-10.25 234.33-24.5 238.83-24.5 238.83-11.5Q238.83-7.6 240.16-5.55 241.5-3.5 244.53-3.5L244.53-3.5Q246.6-3.5 248.38-4.5 250.15-5.5 250.83-7.7L250.83-7.7 250.18-5.25 250.18-24.5 254.68-24.5 254.68 0 250.68 0 249.78-4.8 250.98-4Q249.75-1.73 247.99-0.61 246.23 0.5 243.38 0.5ZM265.58 0L260.78 0 260.78-24.5 264.48-24.5 265.03-20.45Q266.9-22.78 268.61-23.89 270.33-25 272.28-25L272.28-25Q272.9-25 273.43-24.85L273.43-24.85 272.98-19.9Q272.65-19.98 272.29-20.01 271.93-20.05 271.48-20.05L271.48-20.05Q269.53-20.05 267.89-19.19 266.25-18.32 265.58-17.3L265.58-17.3 265.58 0ZM299.92 0L294.87 0 284.97-35 289.97-35 297.37-6.15 305.92-34.3 310.92-34.3 319.47-6.15 326.87-35 331.87-35 321.97 0 316.92 0 308.42-28.15 299.92 0ZM344.92 0.5L344.92 0.5Q340.59 0.5 337.64-1.28 334.69-3.05 333.18-5.99 331.67-8.93 331.67-12.45L331.67-12.45Q331.67-15.88 333.08-18.73 334.49-21.58 337.18-23.29 339.87-25 343.67-25L343.67-25Q346.72-25 349.11-23.79 351.49-22.58 352.86-20.26 354.22-17.95 354.22-14.65L354.22-14.65Q354.22-14.13 354.18-13.51 354.14-12.9 354.02-12.25L354.02-12.25 336.27-12.25Q336.59-8.85 337.89-6.95 339.19-5.05 341.17-4.28 343.14-3.5 345.47-3.5L345.47-3.5Q347.17-3.5 349.02-3.85 350.87-4.2 352.52-4.95L352.52-4.95 353.12-1.4Q351.69-0.78 349.64-0.14 347.59 0.5 344.92 0.5ZM336.67-15.35L336.67-15.35 349.57-15.35Q349.57-17.07 348.92-18.35 348.27-19.63 346.94-20.31 345.62-21 343.57-21L343.57-21Q340.57-21 338.96-19.51 337.34-18.03 336.67-15.35ZM370.82 0.5L370.82 0.5Q368.24 0.5 365.83-0.74 363.42-1.98 362.47-4.4L362.47-4.4 363.57-5.2 362.72 0 358.72 0 358.72-37.5 363.22-37.5 363.22-19.7 362.27-20.4Q363.52-22.43 365.84-23.71 368.17-25 370.82-25L370.82-25Q374.24-25 376.72-23.21 379.19-21.43 380.53-18.51 381.87-15.6 381.87-12.25L381.87-12.25Q381.87-8.68 380.39-5.79 378.92-2.9 376.42-1.2 373.92 0.5 370.82 0.5ZM370.27-3.5L370.27-3.5Q372.42-3.5 373.99-4.69 375.57-5.88 376.42-7.86 377.27-9.85 377.27-12.25L377.27-12.25Q377.27-14.75 376.42-16.73 375.57-18.7 373.99-19.85 372.42-21 370.27-21L370.27-21Q368.34-21 366.68-20.04 365.02-19.07 363.99-17.14 362.97-15.2 362.97-12.25L362.97-12.25Q362.97-9.18 363.99-7.25 365.02-5.33 366.68-4.41 368.34-3.5 370.27-3.5Z" opacity="1" transform="matrix(1,0,0,1,0,0)" fill="#adbfb8" class="undefined-text-1" data-fill-palette-color="secondary" id="text-1"></path></svg></g></svg></g></svg></g></svg></g><g><svg viewBox="0 0 137.58542771972452 137.58542771972452" height="137.58542771972452" width="137.58542771972452"><g><svg xmlns="http://www.w3.org/2000/svg" xmlns:xlink="http://www.w3.org/1999/xlink" version="1.1" x="0" y="0" viewBox="0 0 100 100" enable-background="new 0 0 100 100" xml:space="preserve" height="137.58542771972452" width="137.58542771972452" class="icon-icon-0" data-fill-palette-color="accent" id="icon-0"><path d="M70 92.5h-5l-6.759-6.76-0.019-0.018C57.771 85.277 57.152 85 56.467 85H52.5h-8.971c-0.675 0-1.285 0.271-1.734 0.705l-0.059 0.059L35 92.5h-5c-1.381 0-2.5 0.988-2.5 2.206v3.088c0 1.218 1.119 2.206 2.5 2.206h40c1.381 0 2.5-0.988 2.5-2.206v-3.088C72.5 93.488 71.381 92.5 70 92.5z" fill="#096a2e" data-fill-palette-color="accent"></path><g fill="#096a2e" data-fill-palette-color="accent"><path fill="none" d="M84.889 66.999c-1.688 0-3.055 1.366-3.055 3.056C81.834 68.367 83.201 67 84.889 66.999c1.688 0.001 3.055 1.368 3.055 3.056C87.943 68.365 86.577 66.999 84.889 66.999z"></path><path fill="none" d="M81.834 70.055c0 1.688 1.367 3.055 3.055 3.055C83.201 73.109 81.834 71.742 81.834 70.055z"></path><path fill="none" d="M84.889 73.109c1.688 0 3.055-1.366 3.055-3.055C87.943 71.742 86.576 73.109 84.889 73.109z"></path><path d="M90 0H10C4.477 0 0 4.477 0 10v60c0 5.521 4.477 10 10 10h80c5.523 0 10-4.479 10-10V10C100 4.477 95.523 0 90 0zM84.889 73.109c-1.688 0-3.055-1.366-3.055-3.055 0-1.689 1.367-3.056 3.055-3.056 1.688 0 3.055 1.366 3.055 3.056C87.943 71.743 86.577 73.109 84.889 73.109zM90 60H10V10h80V60z" fill="#096a2e" data-fill-palette-color="accent"></path></g></svg></g></svg></g></svg></g><defs></defs></svg><rect width="395.52" height="98.46943160740608" fill="none" stroke="none" visibility="hidden"></rect></g></svg></g></svg>