<svg xmlns="http://www.w3.org/2000/svg" version="1.1" xmlns:xlink="http://www.w3.org/1999/xlink" xmlns:svgjs="http://svgjs.dev/svgjs" width="1000" height="270" viewBox="0 0 1000 270"><g transform="matrix(1,0,0,1,-0.6060606060606233,-0.014641582811179887)"><svg viewBox="0 0 396 107" data-background-color="#111111" preserveAspectRatio="xMidYMid meet" height="270" width="1000" xmlns="http://www.w3.org/2000/svg" xmlns:xlink="http://www.w3.org/1999/xlink"><g id="tight-bounds" transform="matrix(1,0,0,1,0.2400000000000091,0.005802405039986525)"><svg viewBox="0 0 395.52 106.98839518992001" height="106.98839518992001" width="395.52"><g><svg viewBox="0 0 551.5794106537775 149.20255857010903" height="106.98839518992001" width="395.52"><g transform="matrix(1,0,0,1,156.05941065377752,42.12774876979439)"><svg viewBox="0 0 395.52 64.94706103052026" height="64.94706103052026" width="395.52"><g><svg viewBox="0 0 395.52 64.94706103052026" height="64.94706103052026" width="395.52"><g><svg viewBox="0 0 395.52 29.045104473425884" height="29.045104473425884" width="395.52"><g transform="matrix(1,0,0,1,0,0)"><svg width="395.52" viewBox="2 -37.7 522.26 38.36" height="29.045104473425884" data-palette-color="#915eff"><path d="M2-30.3L2-37.01 16.21-37.01Q18.75-37.01 21.08-36.35 23.41-35.69 25.43-34.5 27.44-33.3 29.09-31.63 30.74-29.96 31.91-27.91 33.08-25.85 33.72-23.49 34.35-21.12 34.35-18.55L34.35-18.55Q34.35-15.99 33.72-13.62 33.08-11.25 31.91-9.19 30.74-7.13 29.09-5.43 27.44-3.74 25.43-2.53 23.41-1.32 21.08-0.66 18.75 0 16.21 0L16.21 0 2 0 2-6.69 4.96-6.69 4.96-30.3 2-30.3ZM16.16-30.3L13.06-30.3 13.06-6.69 16.16-6.69Q18.14-6.69 19.9-7.62 21.66-8.54 22.95-10.14 24.24-11.74 25-13.9 25.76-16.06 25.76-18.55L25.76-18.55Q25.76-21.02 25-23.17 24.24-25.32 22.95-26.9 21.66-28.49 19.9-29.39 18.14-30.3 16.16-30.3L16.16-30.3ZM38.6-29.64L38.6-37.01 68.04-37.01 68.04-24.39 60.08-24.39 60.08-29.64 50.58-29.64 50.58-22.34 57.93-22.34 57.93-15.26 50.58-15.26 50.58-6.69 60.08-6.69 60.08-13.26 68.04-13.26 68.04 0 38.6 0 38.6-6.69 42.48-6.69 42.48-29.64 38.6-29.64ZM90.52-30.3L90.52-37.01 106.37-37.01 106.37-30.3 103.07-30.3 93.18 0 83.17 0 73.58-30.3 70.01-30.3 70.01-37.01 85.88-37.01 85.88-30.3 81.93-30.3 88.37-9.3 94.79-30.3 90.52-30.3ZM109.64-29.64L109.64-37.01 139.08-37.01 139.08-24.39 131.12-24.39 131.12-29.64 121.62-29.64 121.62-22.34 128.97-22.34 128.97-15.26 121.62-15.26 121.62-6.69 131.12-6.69 131.12-13.26 139.08-13.26 139.08 0 109.64 0 109.64-6.69 113.52-6.69 113.52-29.64 109.64-29.64ZM143.32-30.3L143.32-37.01 159.17-37.01 159.17-30.3 155.26-30.3 155.26-6.69 163.32-6.69Q163.64-6.69 163.94-6.87 164.25-7.06 164.48-7.35 164.71-7.64 164.86-7.98 165-8.33 165-8.64L165-8.64 165-13.6 172.91-13.6 172.91 0 143.32 0 143.32-6.69 147.16-6.69 147.16-30.3 143.32-30.3ZM192.93 0.66L192.93 0.66Q190.42 0.66 188.12-0.02 185.83-0.71 183.84-1.95 181.85-3.2 180.22-4.94 178.6-6.69 177.45-8.83 176.31-10.96 175.67-13.4 175.04-15.84 175.04-18.51L175.04-18.51Q175.04-21.17 175.67-23.62 176.31-26.07 177.45-28.21 178.6-30.35 180.22-32.09 181.85-33.84 183.84-35.08 185.83-36.33 188.12-37.01 190.42-37.7 192.93-37.7L192.93-37.7Q195.45-37.7 197.75-37.01 200.06-36.33 202.05-35.08 204.04-33.84 205.66-32.09 207.29-30.35 208.45-28.21 209.61-26.07 210.24-23.62 210.88-21.17 210.88-18.51L210.88-18.51Q210.88-15.87 210.24-13.42 209.61-10.96 208.45-8.83 207.29-6.69 205.66-4.94 204.04-3.2 202.05-1.95 200.06-0.71 197.75-0.02 195.45 0.66 192.93 0.66ZM192.93-7.01L192.93-7.01Q195.06-7.01 196.83-7.92 198.6-8.84 199.87-10.41 201.13-11.99 201.83-14.07 202.53-16.16 202.53-18.51L202.53-18.51Q202.53-20.87 201.82-22.97 201.11-25.07 199.83-26.65 198.55-28.22 196.79-29.14 195.03-30.05 192.93-30.05L192.93-30.05Q190.83-30.05 189.07-29.14 187.32-28.22 186.05-26.65 184.78-25.07 184.06-22.97 183.34-20.87 183.34-18.51L183.34-18.51Q183.34-16.16 184.06-14.07 184.78-11.99 186.05-10.41 187.32-8.84 189.07-7.92 190.83-7.01 192.93-7.01ZM215.73-30.3L215.73-37.01 232.82-37.01Q235.68-37.01 238.07-36.12 240.46-35.23 242.2-33.72 243.93-32.2 244.91-30.22 245.88-28.25 245.88-26.1L245.88-26.1Q245.88-23.51 245.11-21.25 244.35-18.99 242.73-17.33 241.12-15.67 238.66-14.71 236.19-13.75 232.82-13.75L232.82-13.75 227.67-13.75 227.67-6.69 231.06-6.69 231.06 0 215.73 0 215.73-6.69 219.57-6.69 219.57-30.3 215.73-30.3ZM231.02-30.3L227.67-30.3 227.67-20.36 231.02-20.36Q233.8-20.36 235.43-21.53 237.07-22.71 237.07-25.24L237.07-25.24Q237.07-27.61 235.53-28.96 233.99-30.3 231.02-30.3L231.02-30.3ZM249.91-30.3L249.91-37.01 267-37.01Q269.86-37.01 272.25-36.12 274.64-35.23 276.37-33.72 278.11-32.2 279.08-30.22 280.06-28.25 280.06-26.1L280.06-26.1Q280.06-23.51 279.29-21.25 278.52-18.99 276.91-17.33 275.3-15.67 272.83-14.71 270.37-13.75 267-13.75L267-13.75 261.85-13.75 261.85-6.69 265.24-6.69 265.24 0 249.91 0 249.91-6.69 253.74-6.69 253.74-30.3 249.91-30.3ZM265.19-30.3L261.85-30.3 261.85-20.36 265.19-20.36Q267.98-20.36 269.61-21.53 271.25-22.71 271.25-25.24L271.25-25.24Q271.25-27.61 269.71-28.96 268.17-30.3 265.19-30.3L265.19-30.3ZM284.09-29.64L284.09-37.01 313.53-37.01 313.53-24.39 305.57-24.39 305.57-29.64 296.07-29.64 296.07-22.34 303.42-22.34 303.42-15.26 296.07-15.26 296.07-6.69 305.57-6.69 305.57-13.26 313.53-13.26 313.53 0 284.09 0 284.09-6.69 287.97-6.69 287.97-29.64 284.09-29.64ZM316.26-30.3L316.26-37.01 331.11-37.01 331.11-30.3 327.71-30.3 327.71-14.94Q327.71-12.84 328.19-11.38 328.66-9.91 329.52-8.98 330.37-8.06 331.54-7.63 332.72-7.2 334.11-7.2L334.11-7.2Q335.55-7.2 336.73-7.57 337.92-7.93 338.76-8.83 339.6-9.72 340.05-11.21 340.5-12.7 340.5-14.94L340.5-14.94 340.5-30.3 336.57-30.3 336.57-37.01 351.42-37.01 351.42-30.3 348.46-30.3 348.46-15.89Q348.46-11.99 347.34-8.95 346.22-5.91 344.25-3.81 342.29-1.71 339.64-0.61 336.99 0.49 333.96 0.49L333.96 0.49Q330.96 0.49 328.35-0.6 325.73-1.68 323.79-3.75 321.85-5.81 320.73-8.76 319.61-11.72 319.61-15.45L319.61-15.45 319.61-30.3 316.26-30.3ZM355.88-30.3L355.88-37.01 375.46-37.01Q378.32-37.01 380.57-36.16 382.81-35.3 384.35-33.87 385.89-32.45 386.71-30.55 387.52-28.66 387.52-26.61L387.52-26.61Q387.52-24.73 387.12-23.32 386.72-21.9 385.95-20.8 385.18-19.7 384.06-18.86 382.93-18.02 381.49-17.33L381.49-17.33Q382.74-16.7 383.69-15.39 384.64-14.09 385.13-12.01L385.13-12.01 386.38-7.2 389.43-7.2 389.48 0 378.73 0 377.27-8.79Q377.05-10.35 376.6-11.49 376.15-12.62 375.39-13.34 374.63-14.06 373.55-14.4 372.46-14.75 370.97-14.75L370.97-14.75 367.82-14.75 367.82-6.69 371.22-6.69 371.22 0 355.88 0 355.88-6.69 359.72-6.69 359.72-30.3 355.88-30.3ZM372.68-30.3L367.82-30.3 367.82-21.34 372.68-21.34Q374.07-21.34 375.18-21.59 376.29-21.85 377.09-22.4 377.88-22.95 378.31-23.78 378.73-24.61 378.73-25.76L378.73-25.76Q378.73-27.91 377.2-29.1 375.66-30.3 372.68-30.3L372.68-30.3ZM441.69-30.3L441.69-37.01 457.54-37.01 457.54-30.3 454.19-30.3 445.67 0 435.13 0 429.54-23.1 423.82 0 413.37 0 404.71-30.3 400.97-30.3 400.97-37.01 416.84-37.01 416.84-30.3 412.98-30.3 418.43-10.35 424.99-36.94 434.08-36.94 440.52-10.35 445.99-30.3 441.69-30.3ZM460.78-29.64L460.78-37.01 490.23-37.01 490.23-24.39 482.27-24.39 482.27-29.64 472.77-29.64 472.77-22.34 480.12-22.34 480.12-15.26 472.77-15.26 472.77-6.69 482.27-6.69 482.27-13.26 490.23-13.26 490.23 0 460.78 0 460.78-6.69 464.66-6.69 464.66-29.64 460.78-29.64ZM494.47 0L494.47-6.69 498.26-6.69 498.26-30.3 494.47-30.3 494.47-37.06 512.51-37.01Q515.03-37.01 517.12-36.12 519.2-35.23 520.72-33.7 522.23-32.18 523.07-30.14 523.92-28.1 523.92-25.81L523.92-25.81Q523.92-23.12 522.98-21.36 522.04-19.6 520.3-18.53L520.3-18.53Q522.13-17.36 523.19-15.64 524.26-13.92 524.26-11.45L524.26-11.45Q524.26-8.94 523.39-6.84 522.52-4.74 521.02-3.21 519.52-1.68 517.47-0.84 515.42 0 513.05 0L513.05 0 494.47 0ZM512.51-15.31L506.36-15.31 506.36-6.69 512.51-6.69Q513.22-6.69 513.84-7.06 514.47-7.42 514.92-8.02 515.37-8.62 515.64-9.41 515.91-10.21 515.91-11.06L515.91-11.06Q515.91-11.96 515.64-12.73 515.37-13.5 514.91-14.07 514.44-14.65 513.82-14.98 513.2-15.31 512.51-15.31L512.51-15.31ZM512.17-30.3L506.36-30.3 506.36-22 512.17-22Q512.86-22 513.47-22.34 514.08-22.68 514.53-23.25 514.98-23.83 515.25-24.55 515.52-25.27 515.52-26.05L515.52-26.05Q515.52-26.81 515.25-27.56 514.98-28.32 514.53-28.93 514.08-29.54 513.47-29.92 512.86-30.3 512.17-30.3L512.17-30.3Z" opacity="1" transform="matrix(1,0,0,1,0,0)" fill="#915eff" class="undefined-text-0" data-fill-palette-color="primary" id="text-0"></path></svg></g></svg></g><g transform="matrix(1,0,0,1,0,35.90195655709437)"><svg viewBox="0 0 283.0301801297846 29.045104473425884" height="29.045104473425884" width="283.0301801297846"><g transform="matrix(1,0,0,1,0,0)"><svg width="283.0301801297846" viewBox="1.75 -35.7 354.67 36.400000000000006" height="29.045104473425884" data-palette-color="#ff851b"><path d="M19.7 0.7L19.7 0.7Q14.38 0.7 10.33-1.56 6.28-3.83 4.01-7.91 1.75-12 1.75-17.5L1.75-17.5Q1.75-23 4.09-27.09 6.43-31.18 10.53-33.44 14.63-35.7 19.9-35.7L19.9-35.7Q22.68-35.7 24.98-35.11 27.28-34.52 28.95-33.65L28.95-33.65 28.25-27.55Q26.35-28.43 24.34-28.99 22.33-29.55 19.85-29.55L19.85-29.55Q16.18-29.55 13.71-28 11.25-26.45 10-23.73 8.75-21 8.75-17.5L8.75-17.5Q8.75-14 9.98-11.28 11.2-8.55 13.64-7 16.07-5.45 19.7-5.45L19.7-5.45Q22.23-5.45 24.23-6 26.23-6.55 28.25-7.45L28.25-7.45 28.95-1.35Q26.98-0.43 24.61 0.14 22.25 0.7 19.7 0.7ZM57.2 0L34.3 0 34.3-35 56.7-35 56.7-28.8 40.85-28.8 40.85-21.35 53.15-21.35 53.15-15.15 40.85-15.15 40.85-6.2 57.2-6.2 57.2 0ZM75.8 0L62.7 0 62.7-35 75.8-35Q80.8-35 84.7-32.91 88.59-30.83 90.82-26.91 93.05-23 93.05-17.5L93.05-17.5Q93.05-12 90.82-8.09 88.59-4.17 84.7-2.09 80.8 0 75.8 0L75.8 0ZM69.09-29.3L69.09-5.7 75.8-5.7Q79.2-5.7 81.47-7.13 83.75-8.55 84.9-11.2 86.05-13.85 86.05-17.5L86.05-17.5Q86.05-21.15 84.9-23.8 83.75-26.45 81.47-27.88 79.2-29.3 75.8-29.3L75.8-29.3 69.09-29.3ZM105.09 0L98.69 0 98.69-35 111.49-35Q115.12-35 117.83-33.85 120.54-32.7 122.04-30.35 123.54-28 123.54-24.4L123.54-24.4Q123.54-20.55 121.91-18.29 120.27-16.03 117.59-14.7L117.59-14.7 125.49 0 118.34 0 111.59-13Q111.52-13 111.47-13 111.42-13 111.34-13L111.34-13 105.09-13 105.09 0ZM105.09-29.65L105.09-18.35 109.79-18.35Q113.74-18.35 115.29-19.96 116.84-21.58 116.84-24.05L116.84-24.05Q116.84-26.68 115.32-28.16 113.79-29.65 110.04-29.65L110.04-29.65 105.09-29.65ZM136.39 0L129.99 0 129.99-35 136.39-35 136.39 0ZM159.94 0.7L159.94 0.7Q154.61 0.7 150.56-1.56 146.51-3.83 144.25-7.91 141.99-12 141.99-17.5L141.99-17.5Q141.99-23 144.33-27.09 146.66-31.18 150.76-33.44 154.86-35.7 160.14-35.7L160.14-35.7Q162.91-35.7 165.21-35.11 167.51-34.52 169.19-33.65L169.19-33.65 168.49-27.55Q166.59-28.43 164.58-28.99 162.56-29.55 160.09-29.55L160.09-29.55Q156.41-29.55 153.95-28 151.49-26.45 150.24-23.73 148.99-21 148.99-17.5L148.99-17.5Q148.99-14 150.21-11.28 151.44-8.55 153.88-7 156.31-5.45 159.94-5.45L159.94-5.45Q162.46-5.45 164.46-6 166.46-6.55 168.49-7.45L168.49-7.45 169.19-1.35Q167.21-0.43 164.85 0.14 162.49 0.7 159.94 0.7ZM192.18 0L185.78 0 185.78-35 198.58-35Q202.21-35 204.92-33.85 207.63-32.7 209.13-30.35 210.63-28 210.63-24.4L210.63-24.4Q210.63-20.55 209-18.29 207.36-16.03 204.68-14.7L204.68-14.7 212.58 0 205.43 0 198.68-13Q198.61-13 198.56-13 198.51-13 198.43-13L198.43-13 192.18-13 192.18 0ZM192.18-29.65L192.18-18.35 196.88-18.35Q200.83-18.35 202.38-19.96 203.93-21.58 203.93-24.05L203.93-24.05Q203.93-26.68 202.41-28.16 200.88-29.65 197.13-29.65L197.13-29.65 192.18-29.65ZM232.23 0.7L232.23 0.7Q227.23 0.7 223.33-1.56 219.43-3.83 217.21-7.91 214.98-12 214.98-17.5L214.98-17.5Q214.98-23 217.21-27.09 219.43-31.18 223.33-33.44 227.23-35.7 232.23-35.7L232.23-35.7Q237.23-35.7 241.13-33.44 245.03-31.18 247.26-27.09 249.48-23 249.48-17.5L249.48-17.5Q249.48-12 247.26-7.91 245.03-3.83 241.13-1.56 237.23 0.7 232.23 0.7ZM232.23-5.5L232.23-5.5Q235.73-5.5 238.08-7.05 240.43-8.6 241.61-11.31 242.78-14.03 242.78-17.5L242.78-17.5Q242.78-20.98 241.61-23.69 240.43-26.4 238.08-27.95 235.73-29.5 232.23-29.5L232.23-29.5Q228.73-29.5 226.38-27.95 224.03-26.4 222.86-23.69 221.68-20.98 221.68-17.5L221.68-17.5Q221.68-14.03 222.86-11.31 224.03-8.6 226.38-7.05 228.73-5.5 232.23-5.5ZM265.23 0.7L265.23 0.7Q263.1 0.7 260.85 0.29 258.6-0.13 256.68-0.71 254.75-1.3 253.63-1.85L253.63-1.85 254.38-8.65Q256.13-7.8 258.03-7.08 259.93-6.35 261.93-5.9 263.93-5.45 265.98-5.45L265.98-5.45Q268.53-5.45 270.08-6.45 271.63-7.45 271.63-9.5L271.63-9.5Q271.63-11.08 270.75-12.04 269.88-13 268.08-13.76 266.28-14.53 263.48-15.5L263.48-15.5Q260.68-16.48 258.45-17.71 256.23-18.95 254.93-20.85 253.63-22.75 253.63-25.7L253.63-25.7Q253.63-28.6 255.05-30.86 256.48-33.13 259.31-34.41 262.15-35.7 266.38-35.7L266.38-35.7Q269.58-35.7 272.48-34.99 275.38-34.27 277.43-33.45L277.43-33.45 276.78-26.9Q273.83-28.23 271.24-28.91 268.65-29.6 265.98-29.6L265.98-29.6Q263.18-29.6 261.65-28.68 260.13-27.75 260.13-25.9L260.13-25.9Q260.13-24.43 260.98-23.53 261.83-22.63 263.4-21.99 264.98-21.35 267.18-20.65L267.18-20.65Q270.98-19.45 273.56-18.01 276.15-16.57 277.47-14.54 278.78-12.5 278.78-9.5L278.78-9.5Q278.78-8 278.3-6.24 277.83-4.48 276.43-2.9 275.03-1.33 272.34-0.31 269.65 0.7 265.23 0.7ZM290.48 0L284.08 0 284.08-35 290.48-35 290.48 0ZM304.57 0L298.17 0 298.17-35 304.47-35 319.42-12.4 319.42-35 325.82-35 325.82 0 320.57 0 304.57-24 304.57 0ZM356.42 0L333.52 0 333.52-35 355.92-35 355.92-28.8 340.07-28.8 340.07-21.35 352.37-21.35 352.37-15.15 340.07-15.15 340.07-6.2 356.42-6.2 356.42 0Z" opacity="1" transform="matrix(1,0,0,1,0,0)" fill="#ff851b" class="undefined-text-1" data-fill-palette-color="secondary" id="text-1"></path></svg></g></svg></g></svg></g></svg></g><g><svg viewBox="0 0 149.20255857010903 149.20255857010903" height="149.20255857010903" width="149.20255857010903"><g><svg></svg></g><g id="icon-0"><svg viewBox="0 0 149.20255857010903 149.20255857010903" height="149.20255857010903" width="149.20255857010903"><g><rect width="135.66380788504358" height="135.66380788504358" x="6.769375342532726" y="6.769375342532726" fill="#915eff" data-fill-palette-color="accent"></rect><rect width="135.66380788504358" height="135.66380788504358" x="13.538750685065452" y="8.881784197001252e-16" fill="#915eff" opacity="0.5" data-fill-palette-color="accent"></rect></g><g transform="matrix(1,0,0,1,19.341072407236354,28.735307576465445)"><svg viewBox="0 0 110.52041375563633 91.73194341717814" height="91.73194341717814" width="110.52041375563633"><g><svg version="1.1" xmlns="http://www.w3.org/2000/svg" xmlns:xlink="http://www.w3.org/1999/xlink" x="0" y="0" viewBox="0 0 100 83" enable-background="new 0 0 100 83" xml:space="preserve" height="91.73194341717814" width="110.52041375563633" class="icon-ju-0" data-fill-palette-color="background" id="ju-0"><path d="M99.981 2.312C99.884 1.021 98.816 0 97.5 0h-95C1.184 0 0.116 1.021 0.019 2.312L0 66.5C0 67.881 1.119 69 2.5 69h95c1.381 0 2.5-1.119 2.5-2.5L99.981 2.312zM96 57H4V4h92V57z" fill="#111111" data-fill-palette-color="background"></path><path d="M66 81c-4-1-5-4-5-8v-1H50 39v1c0 4-1 7-5 8-0.97 0.242-1 2 0 2h16 16C67 83 66.97 81.242 66 81z" fill="#111111" data-fill-palette-color="background"></path></svg></g></svg></g></svg></g></svg></g></svg></g><defs></defs></svg><rect width="395.52" height="106.98839518992001" fill="none" stroke="none" visibility="hidden"></rect></g></svg></g></svg>